<mxfile host="app.diagrams.net" modified="2021-10-22T08:39:17.163Z" agent="5.0 (Windows NT 10.0; Win64; x64) AppleWebKit/537.36 (KHTML, like Gecko) Chrome/95.0.4638.54 Safari/537.36" etag="rUrka8Qir5agJgiF6GEi" version="15.5.8" type="github">
  <diagram id="QAwXgXkqq4HKdi1aOwd6" name="Page-1">
    <mxGraphModel dx="1422" dy="1604" grid="1" gridSize="10" guides="1" tooltips="1" connect="1" arrows="1" fold="1" page="1" pageScale="1" pageWidth="1100" pageHeight="850" math="0" shadow="0">
      <root>
        <mxCell id="0" />
        <mxCell id="1" parent="0" />
        <mxCell id="jGD69S2wFkR2Q6_d5RNK-1" value="User" style="shape=umlActor;verticalLabelPosition=bottom;verticalAlign=top;html=1;fillColor=#0050ef;strokeColor=#001DBC;fontColor=#ffffff;fontStyle=0;strokeWidth=4;" parent="1" vertex="1">
          <mxGeometry x="150" y="100" width="140" height="220" as="geometry" />
        </mxCell>
        <mxCell id="jGD69S2wFkR2Q6_d5RNK-2" value="" style="verticalLabelPosition=bottom;verticalAlign=top;html=1;shape=mxgraph.basic.smiley;labelBackgroundColor=#CCFFFF;fillColor=#99FFFF;" parent="1" vertex="1">
          <mxGeometry x="180" y="80" width="80" height="80" as="geometry" />
        </mxCell>
        <mxCell id="jGD69S2wFkR2Q6_d5RNK-5" value="Cooking App" style="align=center;html=1;labelBorderColor=#000000;labelPosition=center;verticalLabelPosition=middle;verticalAlign=top;fontColor=#0000CC;fontFamily=Georgia;fontStyle=1;fontSize=18;" parent="1" vertex="1">
          <mxGeometry x="320" y="-100" width="550" height="540" as="geometry" />
        </mxCell>
        <mxCell id="jGD69S2wFkR2Q6_d5RNK-8" value="Log In" style="ellipse;whiteSpace=wrap;html=1;labelBackgroundColor=none;labelBorderColor=none;fontSize=14;fontColor=#0000CC;fillColor=none;align=center;verticalAlign=middle;labelPosition=center;verticalLabelPosition=middle;" parent="1" vertex="1">
          <mxGeometry x="440" y="10" width="90" height="80" as="geometry" />
        </mxCell>
        <mxCell id="jGD69S2wFkR2Q6_d5RNK-10" value="Introduce ingredients for recipes ideas" style="ellipse;whiteSpace=wrap;html=1;labelBackgroundColor=none;labelBorderColor=none;fontSize=14;fontColor=#0000CC;fillColor=none;align=center;verticalAlign=middle;labelPosition=center;verticalLabelPosition=middle;" parent="1" vertex="1">
          <mxGeometry x="440" y="320" width="90" height="90" as="geometry" />
        </mxCell>
        <mxCell id="jGD69S2wFkR2Q6_d5RNK-11" value="Search recipes" style="ellipse;whiteSpace=wrap;html=1;labelBackgroundColor=none;labelBorderColor=none;fontSize=14;fontColor=#0000CC;fillColor=none;align=center;verticalAlign=middle;labelPosition=center;verticalLabelPosition=middle;" parent="1" vertex="1">
          <mxGeometry x="440" y="230" width="90" height="80" as="geometry" />
        </mxCell>
        <mxCell id="jGD69S2wFkR2Q6_d5RNK-12" value="" style="endArrow=open;endFill=1;endSize=12;html=1;rounded=0;fontSize=14;fontColor=#0000CC;edgeStyle=orthogonalEdgeStyle;entryX=0;entryY=0.5;entryDx=0;entryDy=0;" parent="1" target="jGD69S2wFkR2Q6_d5RNK-8" edge="1">
          <mxGeometry width="160" relative="1" as="geometry">
            <mxPoint x="290" y="170" as="sourcePoint" />
            <mxPoint x="450" y="170" as="targetPoint" />
            <Array as="points">
              <mxPoint x="350" y="170" />
              <mxPoint x="350" y="50" />
            </Array>
          </mxGeometry>
        </mxCell>
        <mxCell id="jGD69S2wFkR2Q6_d5RNK-15" value="" style="endArrow=open;endFill=1;endSize=12;html=1;rounded=0;fontSize=14;fontColor=#0000CC;edgeStyle=orthogonalEdgeStyle;entryX=-0.004;entryY=0.642;entryDx=0;entryDy=0;entryPerimeter=0;" parent="1" target="jGD69S2wFkR2Q6_d5RNK-11" edge="1">
          <mxGeometry width="160" relative="1" as="geometry">
            <mxPoint x="290" y="170" as="sourcePoint" />
            <mxPoint x="610" y="180" as="targetPoint" />
            <Array as="points">
              <mxPoint x="350" y="170" />
              <mxPoint x="350" y="281" />
            </Array>
          </mxGeometry>
        </mxCell>
        <mxCell id="jGD69S2wFkR2Q6_d5RNK-16" value="" style="endArrow=open;endFill=1;endSize=12;html=1;rounded=0;fontSize=14;fontColor=#0000CC;edgeStyle=orthogonalEdgeStyle;entryX=0;entryY=0.5;entryDx=0;entryDy=0;exitX=1;exitY=0.3333333333333333;exitDx=0;exitDy=0;exitPerimeter=0;" parent="1" source="jGD69S2wFkR2Q6_d5RNK-1" target="jGD69S2wFkR2Q6_d5RNK-17" edge="1">
          <mxGeometry width="160" relative="1" as="geometry">
            <mxPoint x="290" y="170" as="sourcePoint" />
            <mxPoint x="440" y="170" as="targetPoint" />
            <Array as="points">
              <mxPoint x="290" y="170" />
            </Array>
          </mxGeometry>
        </mxCell>
        <mxCell id="jGD69S2wFkR2Q6_d5RNK-17" value="User profile" style="ellipse;whiteSpace=wrap;html=1;labelBackgroundColor=none;labelBorderColor=none;fontSize=14;fontColor=#0000CC;fillColor=none;align=center;verticalAlign=middle;labelPosition=center;verticalLabelPosition=middle;" parent="1" vertex="1">
          <mxGeometry x="440" y="130" width="90" height="80" as="geometry" />
        </mxCell>
        <mxCell id="jGD69S2wFkR2Q6_d5RNK-18" value="" style="endArrow=open;endFill=1;endSize=12;html=1;rounded=0;fontSize=14;fontColor=#0000CC;edgeStyle=orthogonalEdgeStyle;entryX=0;entryY=0.5;entryDx=0;entryDy=0;" parent="1" target="jGD69S2wFkR2Q6_d5RNK-10" edge="1">
          <mxGeometry width="160" relative="1" as="geometry">
            <mxPoint x="350" y="170" as="sourcePoint" />
            <mxPoint x="449.6400000000001" y="371.3599999999999" as="targetPoint" />
            <Array as="points">
              <mxPoint x="350" y="365" />
            </Array>
          </mxGeometry>
        </mxCell>
        <mxCell id="jGD69S2wFkR2Q6_d5RNK-19" value="Verify password" style="ellipse;whiteSpace=wrap;html=1;labelBackgroundColor=none;labelBorderColor=none;fontSize=14;fontColor=#0000CC;fillColor=none;align=center;verticalAlign=middle;labelPosition=center;verticalLabelPosition=middle;" parent="1" vertex="1">
          <mxGeometry x="670" y="-30" width="70" height="60" as="geometry" />
        </mxCell>
        <mxCell id="jGD69S2wFkR2Q6_d5RNK-21" value="Display Login Error" style="ellipse;whiteSpace=wrap;html=1;labelBackgroundColor=none;labelBorderColor=none;fontSize=14;fontColor=#0000CC;fillColor=none;align=center;verticalAlign=middle;labelPosition=center;verticalLabelPosition=middle;" parent="1" vertex="1">
          <mxGeometry x="660" y="60" width="90" height="80" as="geometry" />
        </mxCell>
        <mxCell id="jGD69S2wFkR2Q6_d5RNK-23" value="&lt;font color=&quot;#080808&quot;&gt;include&lt;/font&gt;" style="html=1;verticalAlign=bottom;endArrow=block;rounded=0;fontSize=14;fontColor=#0000CC;edgeStyle=orthogonalEdgeStyle;exitX=1;exitY=0.5;exitDx=0;exitDy=0;entryX=0;entryY=0.597;entryDx=0;entryDy=0;entryPerimeter=0;" parent="1" source="jGD69S2wFkR2Q6_d5RNK-8" target="jGD69S2wFkR2Q6_d5RNK-19" edge="1">
          <mxGeometry width="80" relative="1" as="geometry">
            <mxPoint x="490" y="180" as="sourcePoint" />
            <mxPoint x="570" y="180" as="targetPoint" />
          </mxGeometry>
        </mxCell>
        <mxCell id="jGD69S2wFkR2Q6_d5RNK-24" value="&lt;font color=&quot;#080808&quot;&gt;extend&lt;/font&gt;" style="html=1;verticalAlign=bottom;endArrow=block;rounded=0;fontSize=14;fontColor=#0000CC;edgeStyle=orthogonalEdgeStyle;exitX=0;exitY=0.5;exitDx=0;exitDy=0;" parent="1" source="jGD69S2wFkR2Q6_d5RNK-21" edge="1">
          <mxGeometry width="80" relative="1" as="geometry">
            <mxPoint x="540" y="60" as="sourcePoint" />
            <mxPoint x="530" y="50" as="targetPoint" />
            <Array as="points">
              <mxPoint x="630" y="100" />
              <mxPoint x="530" y="100" />
            </Array>
          </mxGeometry>
        </mxCell>
        <mxCell id="jGD69S2wFkR2Q6_d5RNK-27" value="Display information" style="ellipse;whiteSpace=wrap;html=1;labelBackgroundColor=none;labelBorderColor=none;fontSize=14;fontColor=#0000CC;fillColor=none;align=center;verticalAlign=middle;labelPosition=center;verticalLabelPosition=middle;" parent="1" vertex="1">
          <mxGeometry x="610" y="146.25" width="80" height="72.5" as="geometry" />
        </mxCell>
        <mxCell id="jGD69S2wFkR2Q6_d5RNK-28" value="Display recipe" style="ellipse;whiteSpace=wrap;html=1;labelBackgroundColor=none;labelBorderColor=none;fontSize=14;fontColor=#0000CC;fillColor=none;align=center;verticalAlign=middle;labelPosition=center;verticalLabelPosition=middle;" parent="1" vertex="1">
          <mxGeometry x="610" y="260" width="80" height="70" as="geometry" />
        </mxCell>
        <mxCell id="jGD69S2wFkR2Q6_d5RNK-31" value="&lt;font color=&quot;#080808&quot;&gt;extend&lt;/font&gt;" style="html=1;verticalAlign=bottom;endArrow=block;rounded=0;fontSize=14;fontColor=#0000CC;edgeStyle=orthogonalEdgeStyle;exitX=-0.052;exitY=0.609;exitDx=0;exitDy=0;exitPerimeter=0;entryX=1;entryY=0.5;entryDx=0;entryDy=0;" parent="1" source="jGD69S2wFkR2Q6_d5RNK-28" target="jGD69S2wFkR2Q6_d5RNK-11" edge="1">
          <mxGeometry x="-0.0379" width="80" relative="1" as="geometry">
            <mxPoint x="620" y="340" as="sourcePoint" />
            <mxPoint x="535" y="290" as="targetPoint" />
            <Array as="points">
              <mxPoint x="550" y="303" />
              <mxPoint x="550" y="270" />
            </Array>
            <mxPoint as="offset" />
          </mxGeometry>
        </mxCell>
        <mxCell id="jGD69S2wFkR2Q6_d5RNK-32" value="&lt;font color=&quot;#080808&quot;&gt;extend&lt;/font&gt;" style="html=1;verticalAlign=bottom;endArrow=block;rounded=0;fontSize=14;fontColor=#0000CC;edgeStyle=orthogonalEdgeStyle;exitX=0.045;exitY=0.694;exitDx=0;exitDy=0;exitPerimeter=0;entryX=1;entryY=0.5;entryDx=0;entryDy=0;" parent="1" source="jGD69S2wFkR2Q6_d5RNK-28" target="jGD69S2wFkR2Q6_d5RNK-10" edge="1">
          <mxGeometry x="-0.0379" width="80" relative="1" as="geometry">
            <mxPoint x="639.9999999999999" y="410.0000000000001" as="sourcePoint" />
            <mxPoint x="534.16" y="347.37" as="targetPoint" />
            <Array as="points">
              <mxPoint x="594" y="309" />
              <mxPoint x="594" y="365" />
            </Array>
            <mxPoint as="offset" />
          </mxGeometry>
        </mxCell>
        <mxCell id="jGD69S2wFkR2Q6_d5RNK-33" value="&lt;font color=&quot;#080808&quot;&gt;extend&lt;/font&gt;" style="html=1;verticalAlign=bottom;endArrow=block;rounded=0;fontSize=14;fontColor=#0000CC;edgeStyle=orthogonalEdgeStyle;exitX=0;exitY=0.5;exitDx=0;exitDy=0;entryX=1;entryY=0.5;entryDx=0;entryDy=0;" parent="1" source="jGD69S2wFkR2Q6_d5RNK-27" target="jGD69S2wFkR2Q6_d5RNK-17" edge="1">
          <mxGeometry x="-0.3023" y="-10" width="80" relative="1" as="geometry">
            <mxPoint x="639.9999999999999" y="262.6300000000001" as="sourcePoint" />
            <mxPoint x="534.16" y="200" as="targetPoint" />
            <Array as="points">
              <mxPoint x="550" y="183" />
              <mxPoint x="550" y="170" />
            </Array>
            <mxPoint x="1" as="offset" />
          </mxGeometry>
        </mxCell>
        <mxCell id="jGD69S2wFkR2Q6_d5RNK-34" value="Verify recipe existance" style="ellipse;whiteSpace=wrap;html=1;labelBackgroundColor=none;labelBorderColor=none;fontSize=14;fontColor=#0000CC;fillColor=none;align=center;verticalAlign=middle;labelPosition=center;verticalLabelPosition=middle;" parent="1" vertex="1">
          <mxGeometry x="750" y="240" width="90" height="80" as="geometry" />
        </mxCell>
        <mxCell id="jGD69S2wFkR2Q6_d5RNK-35" value="&lt;font color=&quot;#080808&quot;&gt;include&lt;/font&gt;" style="html=1;verticalAlign=bottom;endArrow=block;rounded=0;fontSize=14;fontColor=#0000CC;edgeStyle=orthogonalEdgeStyle;exitX=0.929;exitY=0.767;exitDx=0;exitDy=0;entryX=0.022;entryY=0.4;entryDx=0;entryDy=0;entryPerimeter=0;exitPerimeter=0;" parent="1" source="jGD69S2wFkR2Q6_d5RNK-10" target="jGD69S2wFkR2Q6_d5RNK-34" edge="1">
          <mxGeometry x="-0.2681" y="-11" width="80" relative="1" as="geometry">
            <mxPoint x="500" y="474.18" as="sourcePoint" />
            <mxPoint x="600" y="409.99999999999994" as="targetPoint" />
            <Array as="points">
              <mxPoint x="720" y="389" />
              <mxPoint x="720" y="272" />
            </Array>
            <mxPoint as="offset" />
          </mxGeometry>
        </mxCell>
        <mxCell id="jGD69S2wFkR2Q6_d5RNK-36" value="&lt;font color=&quot;#080808&quot;&gt;include&lt;/font&gt;" style="html=1;verticalAlign=bottom;endArrow=block;rounded=0;fontSize=14;fontColor=#0000CC;edgeStyle=orthogonalEdgeStyle;exitX=1;exitY=0;exitDx=0;exitDy=0;entryX=0.004;entryY=0.403;entryDx=0;entryDy=0;entryPerimeter=0;" parent="1" source="jGD69S2wFkR2Q6_d5RNK-11" target="jGD69S2wFkR2Q6_d5RNK-34" edge="1">
          <mxGeometry x="0.0088" y="-8" width="80" relative="1" as="geometry">
            <mxPoint x="533.6099999999999" y="399.03" as="sourcePoint" />
            <mxPoint x="762" y="242" as="targetPoint" />
            <Array as="points">
              <mxPoint x="720" y="242" />
              <mxPoint x="720" y="272" />
            </Array>
            <mxPoint as="offset" />
          </mxGeometry>
        </mxCell>
        <mxCell id="jGD69S2wFkR2Q6_d5RNK-39" value="" style="shape=mxgraph.signs.food.restaurant_2;html=1;pointerEvents=1;fillColor=#000000;strokeColor=none;verticalLabelPosition=bottom;verticalAlign=top;align=center;sketch=0;labelBackgroundColor=none;labelBorderColor=none;fontFamily=Georgia;fontSize=18;fontColor=#080808;" parent="1" vertex="1">
          <mxGeometry x="140" y="130" width="20" height="42" as="geometry" />
        </mxCell>
        <mxCell id="jGD69S2wFkR2Q6_d5RNK-41" value="" style="shape=mxgraph.signs.nature.sun_3;html=1;pointerEvents=1;fillColor=#F0E80C;strokeColor=none;verticalLabelPosition=bottom;verticalAlign=top;align=center;sketch=0;labelBackgroundColor=none;labelBorderColor=none;fontFamily=Georgia;fontSize=18;fontColor=#000000;shadow=0;" parent="1" vertex="1">
          <mxGeometry x="30" y="-50" width="80" height="70" as="geometry" />
        </mxCell>
        <mxCell id="jGD69S2wFkR2Q6_d5RNK-42" value="" style="shape=mxgraph.signs.animals.dog_on_leash;html=1;pointerEvents=1;fillColor=#000000;strokeColor=none;verticalLabelPosition=bottom;verticalAlign=top;align=center;sketch=0;labelBackgroundColor=none;labelBorderColor=none;fontFamily=Georgia;fontSize=18;flipH=1;strokeWidth=0;shadow=0;" parent="1" vertex="1">
          <mxGeometry x="20" y="170" width="130" height="150" as="geometry" />
        </mxCell>
        <mxCell id="jGD69S2wFkR2Q6_d5RNK-43" value="" style="shape=image;verticalLabelPosition=bottom;labelBackgroundColor=#ffffff;verticalAlign=top;aspect=fixed;imageAspect=0;image=https://www.freeiconspng.com/thumbs/chef-hat-png/chef-hat-png-10.png;" parent="1" vertex="1">
          <mxGeometry x="160" y="24.939999999999998" width="108.2" height="75.06" as="geometry" />
        </mxCell>
        <mxCell id="jGD69S2wFkR2Q6_d5RNK-44" value="" style="shape=image;verticalLabelPosition=bottom;labelBackgroundColor=#ffffff;verticalAlign=top;aspect=fixed;imageAspect=0;image=https://mcdonalds.be/_webdata/product-images/MediumMenuBigMac.png;" parent="1" vertex="1">
          <mxGeometry x="250" y="111" width="80" height="80" as="geometry" />
        </mxCell>
        <mxCell id="0-RY2zYW9ysla5GNhMTh-1" value="User" style="shape=umlActor;verticalLabelPosition=bottom;verticalAlign=top;html=1;fillColor=#0050ef;strokeColor=#001DBC;fontColor=#ffffff;fontStyle=0;strokeWidth=4;" vertex="1" parent="1">
          <mxGeometry x="930" y="100" width="140" height="220" as="geometry" />
        </mxCell>
        <mxCell id="0-RY2zYW9ysla5GNhMTh-4" value="" style="shape=image;verticalLabelPosition=bottom;labelBackgroundColor=#ffffff;verticalAlign=top;aspect=fixed;imageAspect=0;image=data:image/png,iVBORw0KGgoAAAANSUhEUgAAAlgAAAJYCAYAAAC+ZpjcAAAACXBIWXMAAAsTAAALEwEAmpwYAAAFyWlUWHRYTUw6Y29tLmFkb2JlLnhtcAAAAAAAPD94cGFja2V0IGJlZ2luPSLvu78iIGlkPSJXNU0wTXBDZWhpSHpyZVN6TlRjemtjOWQiPz4gPHg6eG1wbWV0YSB4bWxuczp4PSJhZG9iZTpuczptZXRhLyIgeDp4bXB0az0iQWRvYmUgWE1QIENvcmUgNi4wLWMwMDYgNzkuZGFiYWNiYiwgMjAyMS8wNC8xNC0wMDozOTo0NCAgICAgICAgIj4gPHJkZjpSREYgeG1sbnM6cmRmPSJodHRwOi8vd3d3LnczLm9yZy8xOTk5LzAyLzIyLXJkZi1zeW50YXgtbnMjIj4gPHJkZjpEZXNjcmlwdGlvbiByZGY6YWJvdXQ9IiIgeG1sbnM6eG1wPSJodHRwOi8vbnMuYWRvYmUuY29tL3hhcC8xLjAvIiB4bWxuczp4bXBNTT0iaHR0cDovL25zLmFkb2JlLmNvbS94YXAvMS4wL21tLyIgeG1sbnM6c3RFdnQ9Imh0dHA6Ly9ucy5hZG9iZS5jb20veGFwLzEuMC9zVHlwZS9SZXNvdXJjZUV2ZW50IyIgeG1sbnM6ZGM9Imh0dHA6Ly9wdXJsLm9yZy9kYy9lbGVtZW50cy8xLjEvIiB4bWxuczpwaG90b3Nob3A9Imh0dHA6Ly9ucy5hZG9iZS5jb20vcGhvdG9zaG9wLzEuMC8iIHhtcDpDcmVhdG9yVG9vbD0iQWRvYmUgUGhvdG9zaG9wIDIyLjQgKFdpbmRvd3MpIiB4bXA6Q3JlYXRlRGF0ZT0iMjAyMS0xMC0yMlQxMTozODozNiswMzowMCIgeG1wOk1ldGFkYXRhRGF0ZT0iMjAyMS0xMC0yMlQxMTozODozNiswMzowMCIgeG1wOk1vZGlmeURhdGU9IjIwMjEtMTAtMjJUMTE6Mzg6MzYrMDM6MDAiIHhtcE1NOkluc3RhbmNlSUQ9InhtcC5paWQ6NDhlNDVlNTQtYjNlZi1hMTQ5LWFmYmItMTZlOGE3YzEwZDIzIiB4bXBNTTpEb2N1bWVudElEPSJhZG9iZTpkb2NpZDpwaG90b3Nob3A6OWJjY2U2ZDYtY2Y5Zi0wNDRjLTliMTItNmZlOTY3NzVkZTA4IiB4bXBNTTpPcmlnaW5hbERvY3VtZW50SUQ9InhtcC5kaWQ6NTdkMzk5ZjMtZmIzYy1lYTRkLWI4MmItMmEyZTBmYmE2ZWMyIiBkYzpmb3JtYXQ9ImltYWdlL3BuZyIgcGhvdG9zaG9wOkNvbG9yTW9kZT0iMyI+IDx4bXBNTTpIaXN0b3J5PiA8cmRmOlNlcT4gPHJkZjpsaSBzdEV2dDphY3Rpb249ImNyZWF0ZWQiIHN0RXZ0Omluc3RhbmNlSUQ9InhtcC5paWQ6NTdkMzk5ZjMtZmIzYy1lYTRkLWI4MmItMmEyZTBmYmE2ZWMyIiBzdEV2dDp3aGVuPSIyMDIxLTEwLTIyVDExOjM4OjM2KzAzOjAwIiBzdEV2dDpzb2Z0d2FyZUFnZW50PSJBZG9iZSBQaG90b3Nob3AgMjIuNCAoV2luZG93cykiLz4gPHJkZjpsaSBzdEV2dDphY3Rpb249InNhdmVkIiBzdEV2dDppbnN0YW5jZUlEPSJ4bXAuaWlkOjQ4ZTQ1ZTU0LWIzZWYtYTE0OS1hZmJiLTE2ZThhN2MxMGQyMyIgc3RFdnQ6d2hlbj0iMjAyMS0xMC0yMlQxMTozODozNiswMzowMCIgc3RFdnQ6c29mdHdhcmVBZ2VudD0iQWRvYmUgUGhvdG9zaG9wIDIyLjQgKFdpbmRvd3MpIiBzdEV2dDpjaGFuZ2VkPSIvIi8+IDwvcmRmOlNlcT4gPC94bXBNTTpIaXN0b3J5PiA8L3JkZjpEZXNjcmlwdGlvbj4gPC9yZGY6UkRGPiA8L3g6eG1wbWV0YT4gPD94cGFja2V0IGVuZD0iciI/Pj3TWl4AABGKSURBVHic7d3LtpvGFoZRdIZ7ef9HTVun4Wx7X3RB6AfWqpqzlUZGQkFJ60MW8uV6vS4AAOT87+wDAAAYjcACAAj7dfYBwLIsy7+Xyx7/2Y8//97lP17FP/6Y/zQ77dtqrssOryH7ltH5BItRefeGHK8neJHAAmANkQUvEFiMyCCADK8l2EhgMQNDAjK8lmAlgcVoDAAATiewALjl3s2KmxhYQWAxEm/8AJQgsJiF+IIcryd4QmABAIQJLEbhjhpyvJ7gTQKLmRgakOP1BA8ILEbgjR6AUgQWAJ+9csPi5gbuEFjMxkAAYHcCi+4EE+R4PUGIwGJGhgjkeD3BDQILACBMYNGZO2fI8XqCIIHFrAwTyPF6gm8EFgACCcIEFl0lBoKhAsAuBBbA3FI3Gm5Y4BOBxewMBQDiBBYdiSIAShNYINiYV3rvey3BfwQW3XgDB6A8gQW/CTdmY8/DjgQWwHz2jCvhBovAgs8MBgAiBBadCCB4n9cRHEBgwVeGD7zP64jpCSyAeQgfOIjAoosjB4MhBMBbBBbAHI6+cXCjwtQEFtxmODAS+xkOJrDo4KzhYCgBsInAAhjbmTcKblKYlsCCxwwIAF4msKiuQuBUOAbYwt6FkwgsgDFViasqxwGHEliwjiFBJ/YrnExgUVm1IVHteAAoSmDBa0QW1dmjUIDAAhhH1biqelywG4EFrzMsqMi+hEIEFlVVHxbVjw+AEwks2E5kUUWHvdjhGCFGYMF7DA3OZg9CQQKLigwMWMdrBYoSWPA+Q44z2HdQmMCCDMOOI3Xdb12PG14msCDH8ABgWRaBRT3dI6X78VOfPQYNCCzIMwDZywh7a4Q1wFMCC/ZhiJBmT0EjAgv2YyCSYi9BMwKLSkYcIiOuiWPZQ9CQwIL9GZBsNereGXVd8IfAgmMYKLzKnoHGBBYcx8Bkjetir0B7AosqZhkos6yTbewPGITAguP5hIJb7AkYiMCC8xiofLAXYDACC85lsGIPwIAEFlVczj6AExmwc/JHxTAwgQU1GLZzca1hcAILajF4x+cawwQEFtRjAI/Jp5QwEYEFNRnGY3EtYTICC2ozmHsTyrfN/FALkxBYVOJN9zZDuifXDCYmsKAPA7sP1womJ7CgF4O7Np82AsuyCCzoyACvyXVZx1cBmILAgp4M81pcD+ALgUU17m7XM9RrcB2AHwQW9Ga404kbKKYhsKjImzBdCFzgJoEFABAmsAA4gk+mmYrAoipvxgC0JbAAtnMjANwksKA3A54O7FOmI7CozJsyHdinwA+/zj4AYLPVg/3fyykNkP4Jg8MX8c919RIui59sAD4RWFRncN125qcmZ12PNf9fnybV45owJYEF/Rw5sLrF7b3jPeKcuRkA/hBYwGejBsL3de0VXCLrK59eMS2BRQeG1l97DKwZz+3nNafPqf0KCCxoJB0CIuC3j/Pg05Ys55Op+ZkGuvBmnXNdxNUtyfNiv8LkBBb0kBrYwuo5kfW+mdcOy7IILHqZ9U1bXB3PuQLeIrBgDoLhHLPeFMD0BBbdzDawZltvJaJ0G3sWFoEFsDfBARMSWHQ0y8CaZZ2Mw56F/wgsgP0JD5iMwKKr0QfW6Oub0ejXdPT1wUsEFgBAmMCis1HvmEddVzeuw3rOFXwjsACOI0RgEgKL7kYbWKOth/HZs3CDwAI41khBMtJaIEpgMYJR3uRHWQfA9AQWzEG81TLC9RhhDbAbgcUovNkDUIbAghoEIp3Yr/CEwGIk3vTpxH6FgQksAF4hDGEFgcVoOr75dzxmAB4QWIxIsPCuo/ZQt73a7XjhNAILACBMYDGqLnfaRx5nl3NCTfYPvEBgAZyrQ7h0OEYoRWAxMkMBgFMILDiPAKQD+xQ2EFiMznCgA/sUBiOwmIHhBdt47cBGAgvOYXDV5dr85jzAGwQWszAsfnMe6nJtYCACC4DvxB68SWAxkypDo8pxALATgcVsxA085jUCAQILoI6z4+bs/z8MQ2AxI0OEe+wNIEJgwbEqDPAKx0A99gUECSxmZZhQ1Rl70+sBwgQWMzNUANiFwILjCDoqsi9hBwKL2RkufLAXgBiBBXMO1hnX3MlR18c+gJ0ILIA5iSvYkcCC3/YeNoYZwEQEFvwlgpiFvQ47E1gwL0P2r4rnYq9jqrhWGI7Agq8MHwDeJrDgp3RkiTaqsBfhIAILoK5kEIkrOJDAgttmGUazrPMR5wCIE1hwn8HLKOxlOJjAgn0ZbJzNHoQTCCx4bIbhNMMa7+mw9g7HCHwjsOA5A46u7F04icACGJO4ghMJLFhny7DqNOA6HWvKjGsGDiKwYD0DmbO8uvfsVTiZwAI+zDSUR17ryGuDNgQWvGb04XVZxl7j6OsDivh19gFAQ5dlWa4r/p3OPh//s7VW1/1avGKmtUJpAgt45tbQrhxdo0bGs7Afdd3QksCCbdZ8ijWyR8P8iPMiJoDSBBZs1yay/rkeepji53jOORTjS+6QZ9hxJPsNChJY8B7DjTPZf1CUwIL3GXIcxV6DJgQWZBh8HM2eg8IEFmQZehzBPoPiLtdjny4CABieT7AAAMIEFgBAmMACAAgTWAAAYQILACDM30UITfx7OfzJ/HuPGFf+iYAyx3zw3/8IFCOwgFse1cGzctg7ZraUy3WpHYbAYAQWkFb1oxuRBRzGd7AAAMIEFgBAmMACAAgTWAAAYQILACBMYAEAhAksAIAwgQUAECawAADCBBYAQJjAAgAIE1gAAGECCwAgTGABAIQJLACAMIEFABAmsAAAwgQWAECYwAIACBNYAABhAgsAIExgAQCECSwAgDCBBQAQJrAAAMIEFgBAmMACAAgTWAAAYQILACBMYAEAhAksAIAwgQUAECawAADCBBYAQJjAAgAIE1gAAGECCwAgTGABAIQJLACAMIEFABAmsIDvrmcfAEB3AgsAIExgAQCECSwAgDCBBQAQJrAAAMIEFgBAmMACAAgTWAAAYQILACBMYAEAhAksYCb+GiDgEAILACBMYAEAhAksAIAwgQUAECawAADCBBYAQJjAAgAIE1gAAGECCwAgTGABAIQJLOAzf5UMQIDAAgAIE1gAAGECCwAgTGABAIQJLACAMIEFABAmsIDZ+CkKYHcCCwAgTGABAIQJLACAMIEFABAmsAAAwgQWAECYwAIACBNYwAe/DwUQIrAAAMIEFgBAmMACAAgTWAAAYQILACBMYAEz8sQksCuBBQAQJrAAAMIEFgBAmMACAAgTWAAAYQILACBMYAEAhAksYFn8LhRAlMACAAgTWAAAYQILACBMYAEAhAksYFa+2A/sRmABAIQJLACAMIEFABAmsAAAwgQWAECYwAIACBNYAABhAgvwe1AAYQILACBMYAEAhAksAIAwgQUAECawgJn5gj+wC4EFABAmsAAAwgQWAECYwAIACBNYAABhAgsAIExgwdz8TAHADgQWAECYwAIACBNYAABhAgsAIExgAQCECSxgdp6kBOIEFgBAmMACAAgTWAAAYQILACBMYAEAhAksAIAwgQXz8vMEADsRWAAAYQILACBMYAEAhAksAIAwgQXgC/9AmMACAAgTWAAAYQILACBMYAEAhAksAIAwgQUAECawYE5+lgBgRwILACBMYAEAhAksAIAwgQUAECawAH7zxX8gRmABAIQJLACAMIEFABAmsAAAwgQWAECYwAIACBNYMB8/RwCwM4EFABAmsAAAwgQWAECYwAIACBNYAH95AACIEFgAAGECCwAgTGABAIQJLACAMIEFABAmsAAAwgQWzMXPEAAcQGABAIQJLACAMIEFABAmsAAAwgQWwFceBADeJrAAAMIEFgBAmMACAAgTWAAAYQILACBMYME8PB0HcBCBBQAQJrAAAMIEFgBAmMACAAgTWAA/eSAAeIvAAgAIE1gAAGECCwAgTGABAIQJLACAMIEFABAmsGAOfnYA4EACCwAgTGABAIQJLACAMIEFABAmsABu82AAsJnAAgAIE1gAAGECCwAgTGABAIQJLACAMIEF4/M0HMDBBBYAQJjAAgAIE1gAAGECCwAgTGAB3OcBAWATgQUAECawAADCBBYAQJjAAgAIE1gAAGECC8bmKTiAEwgsAIAwgQUAECawAADCBBYAQJjAAnjMgwLAywQWAECYwAIACBNYAABhAgsAIExgAQCECSwYl6ffAE4isAAAwgQWAECYwAIACBNYAABhAgvgOQ8MAC8RWAAAYQILACBMYAEAhAksAIAwgQUAECawYEyeegM4kcACAAgTWAAAYQILACBMYAEAhAksgHU8OACsJrAAAMIEFgBAmMACAAgTWAAAYQILACBMYMF4PO0GcDKBBQAQJrAAAMIEFgBAmMACAAgTWADreYAAWEVgAQCECSwAgDCBBQAQJrAAAMIEFgBAmMCCsXjKDaAAgQUAECawAADCBBYAQJjAAniN77kBTwksAIAwgQUAECawAADCBBYAQJjAAgAIE1gwDk+3ARQhsAAAwgQWAECYwAIACBNYAABhAgvgdR4oAB4SWAAAYQILACBMYAEAhAksAIAwgQUAECawYAyeagMoRGABAIQJLACAMIEFABAmsAAAwgQWwDYeLADuElgAAGECCwAgTGABAIQJLACAMIEFABAmsKA/T7MBFCOwAADCBBYAQJjAAgAIE1gA2/n+G3CTwAIACBNYAABhAgsAIExgAQCECSwAgDCBBb15ig2gIIEFABAmsAAAwgQWAECYwAIACBNYAO/xoAHwg8ACAAgTWAAAYQILACBMYAEAhAksAIAwgQV9eXoNoCiBBQAQJrAAAMIEFgBAmMACeJ/vwwFfCCwAgDCBBQAQJrAAAMIEFgBAmMACAAgTWNCTp9YAChNYAABhAgsAIExgAQCECSyADN+LA/4QWAAAYQILACBMYAEAhAksAIAwgQUAECawoB9PqwEUJ7AAAMIEFgBAmMACAAgTWAAAYQILIMcDCMCyLAILACBOYAEAhAksAIAwgQUAECawoBdfogZoQGABAIQJLACAMIEFABAmsAAAwgQWQJYHEQCBBQCQJrAAAMIEFgBAmMACAAgTWNCHL08DNCGwAADCBBYAQJjAAgAIE1gAAGECCyDPAwkwOYEFkHc5+wCAcwks6MPQBmhCYEEvIqs+1wgQWABB4gpYlkVgQUeGeE2uC/CHwIKeDHOAwgQW9CWy6nAtgC8EFvRmsJ/PNQB+EFgA24kr4CaBBf0Z8udw3oG7BBaMwbAHKERgwThE1nGca+AhgQVjMfj35xwDTwksgPXEFbCKwILxiACAkwksGJPIynNOgdUEFoxLEOQ4l8BLBBbAY+IKeJnAgrGJg/c4f8AmAgvGJxIADiawYA4i63XOGbCZwIJ5CIb1nCvgLQIL4CtxBbxNYMFcxMNjzg8QIbBgPiICYGcCC+Yksn5yToAYgQXzEhR/ORdAlMACZieugDiBBXMTFwA7EFjAzJE189qBHQksYFnmDI0Z1wwcRGABMxJXwK4EFvBhluiYZZ3AiQQW8Jn4AAgQWMB3I0fWyGsDChFYwC0jhsiIawKKEljADMQVcCiBBdwzSpSMsg6gEYEFPCJOADYQWMAznSOr87EDjQksYI2OodLxmIFBCCxgROIKOJXAAtYSLQArCSzgFR0iq8MxAoMTWMCrKgdM5WMDJiKwgFGIK6AMgQVsUS1mqh0PMDmBBWwlagDuEFjAOypEVoVjAPhCYAHvOjNwxBVQksACuhJXQFkCC0g4OnbEFVCawAJSRA/AfwQWkHREZAk5oDyBBaTtGUDiCmhBYAFdiCugDYEF7EEMAVMTWMBekpEl2IBWBBawp0QYiSugHYEFVCaugJYEFrC3rZEkroC2BBZwBLEETEVgAUd5JbIEGdCawAKOtCacxBXQnsACKhFXwBAEFnC0exElroBhCCzgDGIKGJrAAs5yufPPAO1drtfr2ccAADAUn2ABAIQJLACAMIEFABAmsAAAwgQWAECYwAIACBNYAABh/wfdNBkOVzY6uQAAAABJRU5ErkJggg==;" vertex="1" parent="1">
          <mxGeometry x="965" y="150" width="70" height="70" as="geometry" />
        </mxCell>
        <mxCell id="0-RY2zYW9ysla5GNhMTh-2" value="" style="verticalLabelPosition=bottom;verticalAlign=top;html=1;shape=mxgraph.basic.smiley;labelBackgroundColor=#CCFFFF;fillColor=#99FFFF;" vertex="1" parent="1">
          <mxGeometry x="960" y="80" width="80" height="80" as="geometry" />
        </mxCell>
      </root>
    </mxGraphModel>
  </diagram>
</mxfile>
